<svg width="36" height="24" viewBox="0 0 36 24" fill="none" xmlns="http://www.w3.org/2000/svg">
<path d="M15.7896 13.3762C15.2491 12.6982 14.6301 12.1792 13.9369 11.8282C14.5494 11.4554 15.0769 10.9975 15.5128 10.4525C16.2474 9.53237 16.6201 8.37894 16.6201 7.02279C16.6201 5.89122 16.3215 4.85123 15.7308 3.93332C15.1423 3.01541 14.2661 2.27846 13.1261 1.74211C12.0101 1.21665 10.6653 0.950684 9.13297 0.950684H0.416504V23.4667H9.53402C11.0271 23.4667 12.361 23.1941 13.4966 22.6578C14.654 22.1127 15.5564 21.3496 16.1754 20.3924C16.7967 19.4309 17.1127 18.3386 17.1127 17.146C17.1127 15.7484 16.6681 14.4816 15.7896 13.3784V13.3762ZM11.1601 9.27288C10.6217 9.70894 9.83482 9.93134 8.82563 9.93134H5.05482V4.94283H8.82563C9.83046 4.94283 10.613 5.17174 11.1513 5.62524C11.6679 6.05912 11.9186 6.65873 11.9186 7.45236C11.9186 8.24599 11.6701 8.8608 11.1601 9.27288ZM5.05482 13.9257H9.10245C10.1618 13.9257 10.977 14.1829 11.5938 14.7127C12.1845 15.2207 12.4722 15.8945 12.4722 16.7753C12.4722 17.6562 12.2063 18.2775 11.657 18.7419C11.0881 19.2238 10.2707 19.468 9.22451 19.468H5.05482V13.9257Z" fill="#FF6F3A"/>
<path d="M34.9204 9.61074C34.2185 8.3418 33.2246 7.34107 31.9648 6.63901C30.7071 5.93695 29.2533 5.58154 27.649 5.58154C26.0448 5.58154 24.482 5.94783 23.1938 6.66951C21.9034 7.39337 20.8877 8.43337 20.1771 9.76553C19.4666 11.0955 19.1069 12.6566 19.1069 14.4052C19.1069 16.1538 19.4775 17.7171 20.2098 19.0449C20.9422 20.3749 21.9666 21.4214 23.257 22.154C24.5452 22.8866 26.023 23.2573 27.6512 23.2573C29.65 23.2573 31.3479 22.7492 32.6993 21.7485C34.0507 20.7477 34.9967 19.4439 35.5132 17.8762L35.5503 17.765H31.5964L31.5724 17.8131C30.8117 19.3545 29.493 20.1351 27.649 20.1351C26.3652 20.1351 25.2667 19.7273 24.3839 18.9272C23.5229 18.1444 23.0281 17.0979 22.9126 15.8137H35.8424L35.8533 15.7418C35.9361 15.225 35.9775 14.6407 35.9775 14.0062C35.9775 12.3579 35.6222 10.8797 34.9204 9.61074ZM24.4449 9.8375C25.2863 9.08529 26.3129 8.70593 27.4943 8.70593C28.7999 8.70593 29.9093 9.09185 30.7921 9.85496C31.6509 10.5963 32.1064 11.5926 32.1457 12.8136H22.9497C23.124 11.573 23.6275 10.5723 24.4471 9.83968L24.4449 9.8375Z" fill="#FF6F3A"/>
<path d="M31.8472 1.46729H23.2354V3.50807H31.8472V1.46729Z" fill="#FF6F3A"/>
</svg>
