<svg width="36" height="27" viewBox="0 0 36 27" fill="none" xmlns="http://www.w3.org/2000/svg">
<path d="M1 26.5H9V13.5L18 20.5L27 13.5V26.5H35V4.5H27L18 10.5L10 4.5H1V26.5Z" fill="#FF6F3A"/>
<path d="M8 4.5C8 6.433 6.433 8 4.5 8C2.567 8 1 6.433 1 4.5C1 2.567 2.567 1 4.5 1C6.433 1 8 2.567 8 4.5Z" fill="#FF6F3A"/>
<path d="M35 4.5C35 6.433 33.433 8 31.5 8C29.567 8 28 6.433 28 4.5C28 2.567 29.567 1 31.5 1C33.433 1 35 2.567 35 4.5Z" fill="#FF6F3A"/>
<path d="M18 10.5L7 2L6 1.5L7.5 7L17 14.5L32 8.5L29 2L18 10.5Z" fill="#FF6F3A"/>
<path d="M1 4.5V26.5H9V13.5L18 20.5L27 13.5V26.5H35V4.5M1 4.5H10L18 10.5M1 4.5C1 6.433 2.567 8 4.5 8C6.433 8 8 6.433 8 4.5C8 2.567 6.433 1 4.5 1C2.567 1 1 2.567 1 4.5ZM18 10.5L27 4.5H35M18 10.5L7 2L6 1.5L7.5 7L17 14.5L32 8.5L29 2L18 10.5ZM35 4.5C35 6.433 33.433 8 31.5 8C29.567 8 28 6.433 28 4.5C28 2.567 29.567 1 31.5 1C33.433 1 35 2.567 35 4.5Z" stroke="#FF6F3A" stroke-width="0.1"/>
</svg>
