<svg width="36" height="36" viewBox="0 0 36 36" fill="none" xmlns="http://www.w3.org/2000/svg">
<path d="M1.92683 7.77449C1.10728 7.01357 0.699707 6.07169 0.699707 4.95101C0.699707 3.83034 1.10946 2.84699 1.92683 2.08388C2.74638 1.32296 3.80134 0.941406 5.09388 0.941406C6.38642 0.941406 7.39998 1.32296 8.21735 2.08388C9.03691 2.84481 9.44448 3.80199 9.44448 4.95101C9.44448 6.10003 9.03473 7.01357 8.21735 7.77449C7.3978 8.53542 6.35809 8.91697 5.09388 8.91697C3.82968 8.91697 2.74638 8.53542 1.92683 7.77449ZM8.75572 12.1395V35.4687H1.38628V12.1395H8.75572Z" fill="#FF6F3A"/>
<path d="M33.288 14.4445C34.8944 16.1887 35.6965 18.5827 35.6965 21.6308V35.0571H28.6977V22.577C28.6977 21.0399 28.2988 19.8451 27.5032 18.9948C26.7076 18.1445 25.6352 17.7171 24.2926 17.7171C22.9499 17.7171 21.8775 18.1423 21.0819 18.9948C20.2863 19.8451 19.8874 21.0399 19.8874 22.577V35.0571H12.8472V12.0745H19.8874V15.1226C20.6002 14.1066 21.5615 13.3042 22.769 12.7133C23.9765 12.1225 25.3344 11.8281 26.8449 11.8281C29.5346 11.8281 31.6837 12.7002 33.288 14.4445Z" fill="#FF6F3A"/>
</svg>
