<svg width="40" height="38" viewBox="0 0 40 38" fill="none" xmlns="http://www.w3.org/2000/svg">
<path d="M29.8235 0.751465H10.5727C5.25436 0.751465 0.927734 5.07937 0.927734 10.3993V28.0161C0.927734 33.336 5.25436 37.6639 10.5727 37.6639H29.8235C35.1419 37.6639 39.4685 33.336 39.4685 28.0161V10.3993C39.4685 5.07937 35.1419 0.751465 29.8235 0.751465ZM4.33019 10.3993C4.33019 6.95661 7.13105 4.15489 10.5727 4.15489H29.8235C33.2652 4.15489 36.066 6.95661 36.066 10.3993V28.0161C36.066 31.4588 33.2652 34.2605 29.8235 34.2605H10.5727C7.13105 34.2605 4.33019 31.4588 4.33019 28.0161V10.3993Z" fill="#FF6F3A"/>
<path d="M20.1981 28.1792C25.1437 28.1792 29.1695 24.1543 29.1695 19.2051C29.1695 14.2558 25.1459 10.231 20.1981 10.231C15.2502 10.231 11.2266 14.2558 11.2266 19.2051C11.2266 24.1543 15.2502 28.1792 20.1981 28.1792ZM20.1981 13.6366C23.2692 13.6366 25.7671 16.1352 25.7671 19.2072C25.7671 22.2793 23.2692 24.7779 20.1981 24.7779C17.1269 24.7779 14.629 22.2793 14.629 19.2072C14.629 16.1352 17.1269 13.6366 20.1981 13.6366Z" fill="#FF6F3A"/>
<path d="M30.0002 11.6811C31.332 11.6811 32.4175 10.5975 32.4175 9.26319C32.4175 7.92884 31.3342 6.84521 30.0002 6.84521C28.6663 6.84521 27.583 7.92884 27.583 9.26319C27.583 10.5975 28.6663 11.6811 30.0002 11.6811Z" fill="#FF6F3A"/>
</svg>
